<?xml version="1.0" encoding="UTF-8" standalone="no"?>
<!-- Created with Inkscape (http://www.inkscape.org/) -->
<svg
   xmlns:svg="http://www.w3.org/2000/svg"
   xmlns="http://www.w3.org/2000/svg"
   version="1.0"
   x="0.00000000"
   y="0.00000000"
   width="566.92914"
   height="566.92914"
   id="svg548">
  <defs
     id="defs550" />
  <path
     d="M 258.93492,270.79372 C 268.62392,275.18272 273.04892,284.58272 270.68992,292.91572 C 266.05092,310.25972 241.48292,326.93872 216.58892,338.78772 C 180.56592,357.31572 164.22192,365.78172 141.37092,386.86472 C 125.67292,401.38672 118.39092,434.35772 119.65792,452.72072 C 121.99992,485.91872 157.22492,516.94872 207.76292,515.58972 C 240.53492,514.72172 257.44392,487.88572 276.41792,485.34672 C 304.23292,482.86272 321.46392,503.21572 343.76192,500.08072 C 386.54192,493.79672 395.22092,457.51272 419.75592,452.00272 C 439.23092,447.48672 444.62192,461.66072 456.97692,465.18572 C 474.76392,470.48072 502.02992,451.95972 514.36092,415.55672 C 520.96392,396.47872 523.77092,375.03072 506.60692,354.29572 C 504.78792,381.82172 492.04092,404.06272 460.85392,404.69972 C 446.58392,404.23272 437.56892,387.15272 419.75592,387.63972 C 393.50892,388.37872 387.04592,421.69572 377.88192,420.20972 C 369.17792,419.53572 353.54092,395.83272 351.51692,393.84372 C 349.45092,391.81272 342.57492,384.84072 322.04892,383.76372 C 310.46892,382.71872 277.90292,405.22072 265.36392,417.81672 C 257.60792,421.98772 285.16692,396.35572 302.39092,382.47572 C 315.88492,370.16072 344.03792,355.91272 367.80692,323.86572 C 374.45692,315.67572 382.12092,300.11672 384.70192,287.96372 C 389.14292,266.27872 391.94192,253.86372 387.02792,225.46472 C 385.93092,219.29672 378.50992,198.41872 362.93992,182.78172 C 343.88392,164.59172 315.01092,145.80372 268.70792,139.23472"
     style="font-size:12.000000px;fill:#808001;fill-rule:evenodd;stroke:#000000;stroke-width:8.7500000;stroke-linecap:round;stroke-linejoin:round"
     id="path614" />
  <path
     d="M 297.30592,219.77572 C 298.78392,220.92472 331.13492,228.61172 339.31092,254.14472 C 346.74392,277.35672 338.00492,296.13172 331.67492,305.69772 C 320.32792,322.84472 277.34192,352.65572 258.16392,364.88772 C 230.66892,382.42372 192.82192,406.16672 196.10792,435.53572 C 198.08792,453.23872 210.54792,460.05672 223.79392,462.26572 C 249.55892,466.89772 257.48292,452.15672 290.62192,453.67372 C 318.65792,453.95872 324.97492,477.85072 357.45092,476.58672 C 379.96592,475.73572 395.52792,444.86072 431.91692,443.17272 C 452.40792,442.26672 469.57792,476.68872 510.37192,421.72772 C 502.02992,451.95972 474.76392,470.48072 456.97692,465.18572 C 444.62192,461.66072 439.23092,447.48672 419.75592,452.00272 C 395.22092,457.51272 386.54192,493.79672 343.76192,500.08072 C 321.46392,503.21572 304.23292,482.86272 276.41792,485.34672 C 257.44392,487.88572 240.53492,514.72172 207.76292,515.58972 C 157.22492,516.94872 121.99992,485.91872 119.65792,452.72072 C 118.39092,434.35772 125.67292,401.38672 141.37092,386.86472 C 164.22192,365.78172 180.56592,357.31572 216.58892,338.78772 C 241.48292,326.93872 266.05092,310.25972 270.68992,292.91572 C 273.04892,284.58272 268.62392,275.18272 258.93492,270.79372"
     style="font-size:12.000000px;fill:#53aa02;fill-rule:evenodd;stroke:#6c9201;stroke-width:1.8750000;stroke-linecap:round;stroke-linejoin:round"
     id="path611" />
  <path
     d="M 82.499920,283.82072 C 81.254920,287.87072 73.388920,298.71972 71.997920,308.56972 C 70.139920,320.45472 69.357920,329.93972 84.409920,340.35672 C 98.596920,349.22072 121.49692,350.67772 140.73592,346.74872 C 170.49292,340.47772 206.98292,320.29872 231.90792,298.22272 C 256.10592,275.93872 300.70892,237.70872 302.07792,204.50172 C 303.03792,180.57572 285.52592,161.57872 275.34592,151.03772 C 266.52092,142.88772 262.19092,128.19572 261.02692,123.35272 C 259.45292,116.80372 259.07792,82.101725 248.61592,66.070725 C 245.19992,61.149725 231.13292,45.534725 210.42892,45.066725 C 193.32992,44.701725 186.13492,59.873725 178.92392,60.342725 C 174.46592,60.598725 163.71892,46.416725 153.14692,46.021725 C 133.16492,46.264725 124.90692,59.598725 117.82392,75.617725 C 110.69892,92.690725 115.52792,104.64672 112.09592,132.89972 C 111.18692,140.13072 109.98992,145.35572 103.50292,151.99272 C 86.311920,170.53672 63.278920,176.22072 47.176920,203.54672 C 40.053920,215.21272 37.962920,234.05272 42.402920,249.37072 C 47.501920,268.05872 57.707920,276.76972 78.680920,282.78472 C 103.05692,290.10872 137.20292,285.71972 163.64892,274.19272 C 195.81292,260.58972 210.58692,251.45972 244.79692,221.68472"
     style="font-size:12.000000px;fill:#808001;fill-rule:evenodd;stroke:#000000;stroke-width:8.7500000;stroke-linecap:round;stroke-linejoin:round;stroke-opacity:0.97600001"
     id="path567" />
  <path
     d="M 178.04115,114.63197 C 174.58362,139.86920 159.84839,155.04779 140.74417,152.75611 C 121.64101,150.46457 112.62210,128.37211 116.07908,106.23179 C 119.53594,84.092459 135.06969,68.551299 151.96639,70.842841 C 171.07061,73.134517 180.39537,93.524527 178.04115,114.63197 z "
     style="font-size:12.000000px;fill:#efff92;fill-opacity:0.99607801;fill-rule:evenodd;stroke:#000000;stroke-width:8.4641485;stroke-linecap:round;stroke-linejoin:round;stroke-opacity:0.97647101"
     id="path570" />
  <path
     d="M 171.23325,114.45534 C 169.33263,126.75577 161.23261,134.15369 150.73092,133.03675 C 140.22982,131.91987 135.27208,121.15218 137.17240,110.36115 C 139.07265,99.570619 147.61163,91.995979 156.89983,93.112858 C 167.40151,94.229803 172.52738,104.16773 171.23325,114.45534 z "
     style="font-size:12.000000px;fill:#07137a;fill-rule:evenodd;stroke:#000000;stroke-width:2.2938066;stroke-linecap:round;stroke-linejoin:round;stroke-opacity:0.97647101"
     id="path574" />
  <path
     d="M 228.54722,115.66430 C 225.08969,140.90153 210.35446,156.08012 191.25024,153.78844 C 172.14708,151.49690 163.12817,129.40444 166.58515,107.26412 C 170.04201,85.124789 185.57576,69.583629 202.47246,71.875171 C 221.57668,74.166847 230.90144,94.556857 228.54722,115.66430 z "
     style="font-size:12.000000px;fill:#efff92;fill-opacity:0.99607801;fill-rule:evenodd;stroke:#000000;stroke-width:8.4641485;stroke-linecap:round;stroke-linejoin:round;stroke-opacity:0.97647101"
     id="path571" />
  <path
     d="M 224.38065,114.45534 C 222.48003,126.75577 214.38001,134.15369 203.87832,133.03675 C 193.37722,131.91987 188.41948,121.15218 190.31980,110.36115 C 192.22005,99.570619 200.75903,91.995979 210.04723,93.112858 C 220.54891,94.229803 225.67478,104.16773 224.38065,114.45534 z "
     style="font-size:12.000000px;fill:#07137a;fill-rule:evenodd;stroke:#000000;stroke-width:2.2938066;stroke-linecap:round;stroke-linejoin:round;stroke-opacity:0.97647101"
     id="path573" />
  <ellipse
     cx="205.25815"
     cy="421.31271"
     rx="5.7281270"
     ry="11.456268"
     transform="matrix(0.968277,0.249879,-0.249879,0.968277,-16.69728,-249.0087)"
     style="font-size:12.000000px;fill-rule:evenodd;stroke-width:1.0000000pt"
     id="path578" />
  <ellipse
     cx="205.25815"
     cy="421.31271"
     rx="5.7281270"
     ry="11.456268"
     transform="matrix(0.968277,0.249879,-0.249879,0.968277,26.26372,-247.0993)"
     style="font-size:12.000000px;fill-rule:evenodd;stroke-width:1.0000000pt"
     id="path580" />
  <path
     d="M 244.79692,221.68472 C 210.58692,251.45972 195.81292,260.58972 163.64892,274.19272 C 137.20292,285.71972 103.05692,290.10872 78.680920,282.78472 C 57.707920,276.76972 47.501920,268.05872 42.402920,249.37072 C 37.962920,234.05272 40.053920,215.21272 48.131920,207.36472 C 49.626920,212.65172 64.383920,235.33572 93.955920,240.77872 C 117.86892,245.32672 138.31992,237.84572 157.92092,229.32272 C 178.77392,219.79172 188.94492,212.48072 206.60992,198.77172 C 219.47592,188.04672 292.02192,224.94572 288.71292,232.18672 C 286.38892,243.43672 256.10592,275.93872 231.90792,298.22272 C 206.98292,320.29872 170.49292,340.47772 140.73592,346.74872 C 121.49692,350.67772 98.596920,349.22072 84.409920,340.35672 C 69.357920,329.93972 70.139920,320.45472 71.997920,308.56972 C 73.388920,298.71972 81.254920,287.87072 82.499920,283.82072 M 244.79692,221.68472 C 210.58692,251.45972 195.81292,260.58972 163.64892,274.19272 C 137.20292,285.71972 103.05692,290.10872 78.680920,282.78472 C 57.707920,276.76972 47.501920,268.05872 42.402920,249.37072 C 37.962920,234.05272 40.053920,215.21272 48.131920,207.36472 C 49.626920,212.65172 64.383920,235.33572 93.955920,240.77872 C 117.86892,245.32672 138.31992,237.84572 157.92092,229.32272 C 178.77392,219.79172 188.94492,212.48072 206.60992,198.77172 C 219.47592,188.04672 234.13292,180.54972 246.70692,179.67872 C 259.95692,178.68472 273.87292,184.51072 281.07592,192.08972 C 290.08592,202.52472 293.93092,216.35372 286.80292,236.95972 C 284.47892,248.20972 256.10592,275.93872 231.90792,298.22272 C 206.98292,320.29872 170.49292,340.47772 140.73592,346.74872 C 121.49692,350.67772 98.596920,349.22072 84.409920,340.35672 C 69.357920,329.93972 70.139920,320.45472 71.997920,308.56972 C 73.388920,298.71972 81.254920,287.87072 81.545920,290.94072 C 82.971920,300.12372 91.736920,306.38472 104.45792,307.60672 C 123.47392,309.58272 162.14092,297.96972 180.83292,285.64872 C 218.07692,261.10072 245.04792,225.25272 247.66092,222.63972"
     style="font-size:12.000000px;fill:#53aa02;stroke-width:1.2500000;stroke-linecap:round;stroke-linejoin:round"
     id="path606" />
  <path
     d="M 244.79692,221.68472 C 210.58692,251.45972 195.81292,260.58972 163.64892,274.19272 C 137.20292,285.71972 103.05692,290.10872 78.680920,282.78472 C 57.707920,276.76972 47.501920,268.05872 42.402920,249.37072 C 37.962920,234.05272 39.098920,228.57772 47.176920,220.72972 C 48.671920,226.01672 61.518920,245.83772 91.090920,251.28072 C 115.00392,255.82872 132.59192,251.21072 152.19292,242.68772 C 173.04592,233.15672 279.61092,235.44772 279.16592,243.64272 C 276.84192,254.89272 256.10592,275.93872 231.90792,298.22272 C 206.98292,320.29872 170.49292,340.47772 140.73592,346.74872 C 121.49692,350.67772 98.596920,349.22072 84.409920,340.35672 C 69.357920,329.93972 70.139920,320.45472 71.997920,308.56972 C 73.388920,298.71972 81.254920,287.87072 82.499920,283.82072 M 244.79692,221.68472 C 210.58692,251.45972 195.81292,260.58972 163.64892,274.19272 C 137.20292,285.71972 103.05692,290.10872 78.680920,282.78472 C 57.707920,276.76972 47.501920,268.05872 42.402920,249.37072 C 37.962920,234.05272 35.280920,223.80472 43.358920,215.95672 C 54.400920,232.69972 65.337920,249.65672 94.909920,255.09972 C 118.82292,259.64772 134.50092,251.21172 154.10192,242.68872 C 174.95492,233.15772 189.89992,227.75572 207.56492,214.04672 C 220.43092,203.32172 227.44992,197.73472 240.02392,196.86372 C 253.27392,195.86972 266.23492,202.64972 273.43792,210.22872 C 282.44792,220.66372 284.58592,227.60872 280.11992,243.64172 C 277.04292,254.69072 256.10592,275.93872 231.90792,298.22272 C 206.98292,320.29872 170.49292,340.47772 140.73592,346.74872 C 121.49692,350.67772 98.596920,349.22072 84.409920,340.35672 C 69.357920,329.93972 70.139920,320.45472 71.997920,308.56972 C 73.388920,298.71972 81.254920,287.87072 81.545920,290.94072 C 82.971920,300.12372 91.736920,306.38472 104.45792,307.60672 C 123.47392,309.58272 162.14092,297.96972 180.83292,285.64872 C 218.07692,261.10072 245.04792,225.25272 247.66092,222.63972"
     style="font-size:12.000000px;fill:#04fb01;stroke-width:1.8750000;stroke-linecap:round;stroke-linejoin:round"
     id="path600" />
  <path
     d="M 253.38892,216.91172 C 241.87192,205.14272 220.63492,246.26972 163.64892,274.19272 C 137.20292,285.71972 81.254920,287.87072 81.545920,290.94072 C 76.288920,311.57972 86.968920,318.73572 99.683920,320.01772 C 118.70592,321.93372 141.92392,325.01072 180.83292,299.96772 C 224.27792,272.96172 258.07192,222.67272 253.38892,216.91172 z "
     style="font-size:12.000000px;fill:#53aa02;fill-rule:evenodd;stroke:#2ad401;stroke-width:1.2500000;stroke-linecap:round;stroke-linejoin:round"
     id="path617" />
  <path
     d="M 247.66092,222.63972 C 210.58692,251.45972 195.81292,260.58972 163.64892,274.19272 C 137.20292,285.71972 103.05692,290.10872 78.680920,282.78472 C 57.707920,276.76972 81.254920,287.87072 81.545920,290.94072 C 82.971920,300.12372 91.736920,306.38472 104.45792,307.60672 C 123.47392,309.58272 162.14092,297.96972 180.83292,285.64872 C 218.07692,261.10072 231.68192,243.39172 247.66092,222.63972 z M 78.680920,282.78472 C 57.707920,276.76972 81.254920,287.87072 82.499920,283.82072"
     style="font-size:12.000000px;fill-rule:evenodd;stroke-width:1.2500000;stroke-linecap:round;stroke-linejoin:round;stroke-opacity:0.97600001"
     id="path602" />
  <path
     d="M 82.499920,283.82072 C 81.254920,287.87072 73.388920,298.71972 71.997920,308.56972 C 70.139920,320.45472 69.357920,329.93972 84.409920,340.35672 C 98.596920,349.22072 121.49692,350.67772 140.73592,346.74872 C 170.49292,340.47772 206.98292,320.29872 231.90792,298.22272"
     style="font-size:12.000000px;fill:none;fill-rule:evenodd;stroke:#000000;stroke-width:8.7500000;stroke-linecap:round;stroke-linejoin:round;stroke-opacity:0.97600001"
     id="path605" />
  <path
     d="M 156.01192,278.01172 C 154.96892,279.94772 125.20892,299.02072 111.14092,312.38072 C 98.634920,323.40872 92.479920,327.01472 85.364920,337.20172 C 82.729920,341.55972 77.806920,351.59772 76.772920,357.25072 C 75.002920,361.70872 74.840920,369.51172 76.771920,383.98172 C 74.609920,381.48672 72.000920,376.55672 70.089920,368.70772 C 68.066920,361.40772 66.780920,351.86672 64.360920,351.52272 C 61.442920,351.10872 45.190920,363.61472 43.357920,365.84272 C 39.700920,370.28672 40.493920,371.90072 40.493920,369.66172 C 40.493920,369.40872 40.430920,370.89972 40.493920,370.61572 C 41.909920,364.20272 43.297920,361.31472 46.221920,356.29572 C 47.926920,353.36972 58.860920,339.14472 61.496920,336.24772 C 70.610920,325.27472 73.685920,321.73572 82.499920,312.38072 C 93.793920,301.34872 107.76792,290.04072 108.27692,288.51272"
     style="font-size:12.000000px;fill:#ff0000;fill-rule:evenodd;stroke:#000000;stroke-width:1.0000000pt"
     id="path586" />
  <path
     d="M 290.62292,235.05072 C 292.10092,236.19972 319.22792,239.25672 327.85492,264.64572 C 334.83692,288.00172 322.23992,303.82472 318.30892,308.56172 C 291.19692,340.08472 239.33392,358.66572 219.97692,370.61572 C 192.66092,388.43372 174.08192,409.94472 177.01392,439.35472 C 181.25792,467.51772 203.86592,474.37672 217.11192,476.58572 C 242.87592,481.21772 258.43792,457.88472 291.57692,459.40172 C 319.61292,459.68672 325.92992,482.62372 358.40592,481.35972 C 380.92092,480.50872 392.66392,447.72472 429.05292,446.03672 C 449.54392,445.13072 476.26092,478.59772 510.37192,421.72772 C 502.02992,451.95972 474.76392,470.48072 456.97692,465.18572 C 444.62192,461.66072 439.23092,447.48672 419.75592,452.00272 C 395.22092,457.51272 386.54192,493.79672 343.76192,500.08072 C 321.46392,503.21572 304.23292,482.86272 276.41792,485.34672 C 257.44392,487.88572 240.53492,514.72172 207.76292,515.58972 C 157.22492,516.94872 121.99992,485.91872 119.65792,452.72072 C 118.39092,434.35772 125.67292,401.38672 141.37092,386.86472 C 164.22192,365.78172 180.56592,357.31572 216.58892,338.78772 C 241.48292,326.93872 266.05092,310.25972 270.68992,292.91572 C 273.04892,284.58272 268.62392,275.18272 258.93492,270.79372"
     style="font-size:12.000000px;fill:#04fb01;fill-rule:evenodd;stroke:#32cc01;stroke-width:1.8750000"
     id="path616" />
  <path
     d="M 231.90792,298.22272 C 256.10592,275.93872 300.70892,237.70872 302.07792,204.50172 C 303.03792,180.57572 285.52592,161.57872 275.34592,151.03772 C 266.52092,142.88772 262.19092,128.19572 261.02692,123.35272 C 259.45292,116.80372 259.07792,82.101725 248.61592,66.070725 C 245.19992,61.149725 231.13292,45.534725 210.42892,45.066725 C 193.32992,44.701725 186.13492,59.873725 178.92392,60.342725 C 174.46592,60.598725 163.71892,46.416725 153.14692,46.021725 C 133.16492,46.264725 124.90692,59.598725 117.82392,75.617725 C 110.69892,92.690725 115.52792,104.64672 112.09592,132.89972 C 111.18692,140.13072 109.98992,145.35572 103.50292,151.99272 C 86.311920,170.53672 63.278920,176.22072 47.176920,203.54672 C 40.053920,215.21272 37.962920,234.05272 42.402920,249.37072 C 47.501920,268.05872 57.707920,276.76972 78.680920,282.78472 C 103.05692,290.10872 137.20292,285.71972 163.64892,274.19272 C 195.81292,260.58972 210.58692,251.45972 244.79692,221.68472"
     style="font-size:12.000000px;fill:none;fill-rule:evenodd;stroke:#000000;stroke-width:8.7500000;stroke-linecap:round;stroke-linejoin:round;stroke-opacity:0.97600001"
     id="path604" />
  <path
     d="M 120.68792,431.71624 C 128.32592,438.51651 129.37592,439.09126 137.87292,440.54444 C 146.41892,443.07963 160.82492,438.01037 161.73892,439.47030 C 162.81692,441.19230 154.02792,455.63414 140.73592,455.57790 C 126.44992,456.47208 126.82392,454.05948 119.73292,447.82272"
     style="font-size:12.000000px;fill:#4da303;fill-rule:evenodd;stroke:#21dd01;stroke-width:1.9885204;stroke-linecap:round;stroke-linejoin:round"
     id="path619" />
  <path
     d="M 131.91402,480.08115 C 140.72962,484.22584 140.39715,482.75387 148.96487,482.07393 C 157.79970,482.31947 170.79814,474.64572 171.98408,475.70106 C 173.38284,476.94585 167.71778,491.33302 154.80076,494.43472 C 146.16971,497.46196 141.51547,494.64007 140.02943,491.81247"
     style="font-size:12.000000px;fill:#4da303;fill-rule:evenodd;stroke:#21dd01;stroke-width:1.8749992;stroke-linecap:round;stroke-linejoin:round"
     id="path620" />
  <path
     d="M 134.05288,393.52846 C 141.69088,399.57446 142.65888,399.75746 151.23888,399.25646 C 161.69388,399.60146 173.23588,395.09446 174.14988,396.39246 C 175.22788,397.92346 165.44388,410.67946 151.23688,411.66746 C 138.73688,411.69746 131.59688,411.48446 128.32488,407.84846"
     style="font-size:12.000000px;fill:#4da303;fill-rule:evenodd;stroke:#21dd01;stroke-width:1.8750000;stroke-linecap:round;stroke-linejoin:round"
     id="path621" />
  <path
     d="M 171.28607,362.02331 C 171.28607,362.34231 177.01907,364.54231 185.60707,364.88831 C 195.10507,365.31831 201.87607,365.49931 202.79007,366.79731 C 203.86807,368.32831 198.88907,375.23231 185.60607,375.39031 C 172.27407,376.50331 168.83007,374.25131 158.87507,372.52531"
     style="font-size:12.000000px;fill:#4da303;fill-rule:evenodd;stroke:#21dd01;stroke-width:1.8750000;stroke-linecap:round;stroke-linejoin:round"
     id="path622" />
  <path
     d="M 214.24701,339.11102 C 215.20201,340.38402 217.12701,339.66202 227.61401,341.02002 C 238.07901,341.42302 241.97301,340.67702 242.88701,341.97502 C 243.96501,343.50602 239.91001,351.48902 225.70301,352.47702 C 213.31801,354.17102 206.06301,352.29302 198.97201,346.74802"
     style="font-size:12.000000px;fill:#4da303;fill-rule:evenodd;stroke:#21dd01;stroke-width:1.8750000;stroke-linecap:round;stroke-linejoin:round"
     id="path623" />
  <path
     d="M 257.20742,310.46992 C 257.20842,312.69792 261.98342,311.18492 270.57442,311.42492 C 281.98442,311.76992 283.02542,310.12692 283.93942,311.42492 C 285.01742,312.95592 280.81142,320.69292 266.75442,322.88192 C 254.32142,325.66292 249.02442,320.78892 246.70642,320.97192"
     style="font-size:12.000000px;fill:#4da303;fill-rule:evenodd;stroke:#21dd01;stroke-width:1.8750000;stroke-linecap:round;stroke-linejoin:round"
     id="path624" />
  <path
     d="M 270.57460,280.98705 C 279.48606,284.92137 280.24767,282.34560 287.92854,281.35308 C 303.80559,277.32828 304.89388,273.29580 306.10453,274.32270 C 307.53243,275.53395 304.28941,287.87883 291.72865,292.20246 C 279.10331,296.62756 274.04021,294.62890 272.04766,292.37606"
     style="font-size:12.000000px;fill:#4da303;fill-rule:evenodd;stroke:#21dd01;stroke-width:1.8749994;stroke-linecap:round;stroke-linejoin:round"
     id="path625" />
  <path
     d="M 165.15384,506.63030 C 174.74547,508.33145 186.49264,506.86465 194.58624,503.97294 C 203.17915,501.90497 213.72533,491.10570 215.14554,491.81507 C 216.82062,492.65182 213.63955,507.00113 201.53547,512.47425 C 189.80818,516.80171 189.75138,514.47774 180.87891,512.95830"
     style="font-size:12.000000px;fill:#4da303;fill-rule:evenodd;stroke:#21dd01;stroke-width:1.8750008;stroke-linecap:round;stroke-linejoin:round"
     id="path626" />
  <path
     d="M 262.75392,272.70272 C 272.44292,277.09172 273.04892,284.58272 270.68992,292.91572 C 266.05092,310.25972 241.48292,326.93872 216.58892,338.78772 C 180.56592,357.31572 164.22192,365.78172 141.37092,386.86472 C 125.67292,401.38672 118.39092,434.35772 119.65792,452.72072 C 121.99992,485.91872 157.22492,516.94872 207.76292,515.58972 C 240.53492,514.72172 257.44392,487.88572 276.41792,485.34672 C 304.23292,482.86272 321.46392,503.21572 343.76192,500.08072 C 386.54192,493.79672 395.22092,457.51272 419.75592,452.00272 C 439.23092,447.48672 444.62192,461.66072 456.97692,465.18572 C 474.76392,470.48072 502.02992,451.95972 514.36092,415.55672 C 520.96392,396.47872 523.77092,375.03072 506.60692,354.29572 C 504.78792,381.82172 492.04092,404.06272 460.85392,404.69972 C 446.58392,404.23272 437.56892,387.15272 419.75592,387.63972 C 393.50892,388.37872 387.04592,421.69572 377.88192,420.20972 C 369.17792,419.53572 353.54092,395.83272 351.51692,393.84372 C 349.45092,391.81272 342.57492,384.84072 322.04892,383.76372 C 310.46892,382.71872 277.90292,405.22072 265.36392,417.81672 C 257.60792,421.98772 285.16692,396.35572 302.39092,382.47572 C 315.88492,370.16072 344.03792,355.91272 367.80692,323.86572 C 374.45692,315.67572 382.12092,300.11672 384.70192,287.96372 C 389.14292,266.27872 391.94192,253.86372 387.02792,225.46472 C 385.93092,219.29672 378.50992,198.41872 362.93992,182.78172 C 343.88392,164.59172 315.01092,145.80372 268.70792,139.23472"
     style="font-size:12.000000px;fill:none;fill-rule:evenodd;stroke:#000000;stroke-width:8.7500000;stroke-linecap:round;stroke-linejoin:round"
     id="path615" />
</svg>
